<mxfile host="app.diagrams.net" modified="2021-10-25T15:53:06.346Z" agent="5.0 (Macintosh; Intel Mac OS X 10_15_7) AppleWebKit/537.36 (KHTML, like Gecko) Chrome/93.0.4577.82 Safari/537.36" etag="Lq7-hhyrVkSS7bHehJKv" version="15.5.8" type="github">
  <diagram id="kgpKYQtTHZ0yAKxKKP6v" name="Page-1">
    <mxGraphModel dx="1164" dy="682" grid="1" gridSize="10" guides="1" tooltips="1" connect="1" arrows="1" fold="1" page="1" pageScale="1" pageWidth="850" pageHeight="1100" math="0" shadow="0">
      <root>
        <mxCell id="0" />
        <mxCell id="1" parent="0" />
        <mxCell id="3nuBFxr9cyL0pnOWT2aG-1" value="知识星球客户端" style="shape=umlLifeline;perimeter=lifelinePerimeter;container=1;collapsible=0;recursiveResize=0;rounded=0;shadow=0;strokeWidth=1;" parent="1" vertex="1">
          <mxGeometry x="120" y="80" width="100" height="790" as="geometry" />
        </mxCell>
        <mxCell id="3nuBFxr9cyL0pnOWT2aG-2" value="" style="points=[];perimeter=orthogonalPerimeter;rounded=0;shadow=0;strokeWidth=1;" parent="3nuBFxr9cyL0pnOWT2aG-1" vertex="1">
          <mxGeometry x="45" y="110" width="10" height="630" as="geometry" />
        </mxCell>
        <mxCell id="3nuBFxr9cyL0pnOWT2aG-5" value="第三方支付" style="shape=umlLifeline;perimeter=lifelinePerimeter;container=1;collapsible=0;recursiveResize=0;rounded=0;shadow=0;strokeWidth=1;" parent="1" vertex="1">
          <mxGeometry x="325" y="80" width="100" height="790" as="geometry" />
        </mxCell>
        <mxCell id="3nuBFxr9cyL0pnOWT2aG-6" value="" style="points=[];perimeter=orthogonalPerimeter;rounded=0;shadow=0;strokeWidth=1;" parent="3nuBFxr9cyL0pnOWT2aG-5" vertex="1">
          <mxGeometry x="45" y="540" width="10" height="160" as="geometry" />
        </mxCell>
        <mxCell id="9GrYp0oR3SbUmOQ9qg4n-10" value="知识星球后台" style="shape=umlLifeline;perimeter=lifelinePerimeter;container=1;collapsible=0;recursiveResize=0;rounded=0;shadow=0;strokeWidth=1;" vertex="1" parent="1">
          <mxGeometry x="520" y="80" width="100" height="790" as="geometry" />
        </mxCell>
        <mxCell id="9GrYp0oR3SbUmOQ9qg4n-11" value="" style="points=[];perimeter=orthogonalPerimeter;rounded=0;shadow=0;strokeWidth=1;" vertex="1" parent="9GrYp0oR3SbUmOQ9qg4n-10">
          <mxGeometry x="45" y="110" width="10" height="630" as="geometry" />
        </mxCell>
        <mxCell id="9GrYp0oR3SbUmOQ9qg4n-23" value="" style="endArrow=blockThin;html=1;rounded=0;exitX=1;exitY=0.233;exitDx=0;exitDy=0;exitPerimeter=0;endFill=1;entryX=-0.1;entryY=0.227;entryDx=0;entryDy=0;entryPerimeter=0;" edge="1" parent="1" source="3nuBFxr9cyL0pnOWT2aG-2" target="9GrYp0oR3SbUmOQ9qg4n-11">
          <mxGeometry width="50" height="50" relative="1" as="geometry">
            <mxPoint x="210" y="360" as="sourcePoint" />
            <mxPoint x="560" y="332" as="targetPoint" />
          </mxGeometry>
        </mxCell>
        <mxCell id="9GrYp0oR3SbUmOQ9qg4n-24" value="" style="endArrow=blockThin;html=1;rounded=0;endFill=1;exitX=1.1;exitY=0.021;exitDx=0;exitDy=0;exitPerimeter=0;" edge="1" parent="1" source="3nuBFxr9cyL0pnOWT2aG-2">
          <mxGeometry width="50" height="50" relative="1" as="geometry">
            <mxPoint x="180" y="210" as="sourcePoint" />
            <mxPoint x="560" y="200" as="targetPoint" />
          </mxGeometry>
        </mxCell>
        <mxCell id="9GrYp0oR3SbUmOQ9qg4n-25" value="发送登录请求" style="text;html=1;align=center;verticalAlign=middle;resizable=0;points=[];autosize=1;strokeColor=none;fillColor=none;" vertex="1" parent="1">
          <mxGeometry x="200" y="180" width="90" height="20" as="geometry" />
        </mxCell>
        <mxCell id="9GrYp0oR3SbUmOQ9qg4n-26" value="" style="endArrow=open;html=1;rounded=0;exitX=-0.1;exitY=0.075;exitDx=0;exitDy=0;exitPerimeter=0;dashed=1;endFill=0;entryX=1.2;entryY=0.078;entryDx=0;entryDy=0;entryPerimeter=0;" edge="1" parent="1" source="9GrYp0oR3SbUmOQ9qg4n-11" target="3nuBFxr9cyL0pnOWT2aG-2">
          <mxGeometry width="50" height="50" relative="1" as="geometry">
            <mxPoint x="560" y="260" as="sourcePoint" />
            <mxPoint x="200" y="240" as="targetPoint" />
          </mxGeometry>
        </mxCell>
        <mxCell id="9GrYp0oR3SbUmOQ9qg4n-27" value="返回登录结果" style="text;html=1;align=center;verticalAlign=middle;resizable=0;points=[];autosize=1;strokeColor=none;fillColor=none;" vertex="1" parent="1">
          <mxGeometry x="450" y="220" width="90" height="20" as="geometry" />
        </mxCell>
        <mxCell id="9GrYp0oR3SbUmOQ9qg4n-28" value="发送搜索请求" style="text;html=1;align=center;verticalAlign=middle;resizable=0;points=[];autosize=1;strokeColor=none;fillColor=none;" vertex="1" parent="1">
          <mxGeometry x="185" y="310" width="90" height="20" as="geometry" />
        </mxCell>
        <mxCell id="9GrYp0oR3SbUmOQ9qg4n-30" value="" style="endArrow=open;html=1;rounded=0;exitX=-0.3;exitY=0.292;exitDx=0;exitDy=0;exitPerimeter=0;entryX=0.9;entryY=0.298;entryDx=0;entryDy=0;entryPerimeter=0;dashed=1;endFill=0;" edge="1" parent="1" source="9GrYp0oR3SbUmOQ9qg4n-11" target="3nuBFxr9cyL0pnOWT2aG-2">
          <mxGeometry width="50" height="50" relative="1" as="geometry">
            <mxPoint x="440" y="420" as="sourcePoint" />
            <mxPoint x="490" y="370" as="targetPoint" />
          </mxGeometry>
        </mxCell>
        <mxCell id="9GrYp0oR3SbUmOQ9qg4n-31" value="返回搜索结果" style="text;html=1;align=center;verticalAlign=middle;resizable=0;points=[];autosize=1;strokeColor=none;fillColor=none;" vertex="1" parent="1">
          <mxGeometry x="450" y="350" width="90" height="20" as="geometry" />
        </mxCell>
        <mxCell id="9GrYp0oR3SbUmOQ9qg4n-34" value="" style="endArrow=blockThin;html=1;rounded=0;exitX=1;exitY=0.419;exitDx=0;exitDy=0;exitPerimeter=0;entryX=-0.1;entryY=0.413;entryDx=0;entryDy=0;entryPerimeter=0;endFill=1;" edge="1" parent="1" source="3nuBFxr9cyL0pnOWT2aG-2" target="9GrYp0oR3SbUmOQ9qg4n-11">
          <mxGeometry width="50" height="50" relative="1" as="geometry">
            <mxPoint x="190" y="500" as="sourcePoint" />
            <mxPoint x="240" y="450" as="targetPoint" />
          </mxGeometry>
        </mxCell>
        <mxCell id="9GrYp0oR3SbUmOQ9qg4n-35" value="点击任一星球，获取星球资料页" style="text;html=1;align=center;verticalAlign=middle;resizable=0;points=[];autosize=1;strokeColor=none;fillColor=none;" vertex="1" parent="1">
          <mxGeometry x="180" y="430" width="180" height="20" as="geometry" />
        </mxCell>
        <mxCell id="9GrYp0oR3SbUmOQ9qg4n-36" value="" style="endArrow=open;html=1;rounded=0;exitX=-0.2;exitY=0.521;exitDx=0;exitDy=0;exitPerimeter=0;entryX=1.2;entryY=0.527;entryDx=0;entryDy=0;entryPerimeter=0;dashed=1;endFill=0;" edge="1" parent="1" source="9GrYp0oR3SbUmOQ9qg4n-11" target="3nuBFxr9cyL0pnOWT2aG-2">
          <mxGeometry width="50" height="50" relative="1" as="geometry">
            <mxPoint x="560" y="520" as="sourcePoint" />
            <mxPoint x="310" y="520" as="targetPoint" />
          </mxGeometry>
        </mxCell>
        <mxCell id="9GrYp0oR3SbUmOQ9qg4n-37" value="返回星球资料页数据" style="text;html=1;align=center;verticalAlign=middle;resizable=0;points=[];autosize=1;strokeColor=none;fillColor=none;" vertex="1" parent="1">
          <mxGeometry x="435" y="500" width="120" height="20" as="geometry" />
        </mxCell>
        <mxCell id="9GrYp0oR3SbUmOQ9qg4n-43" value="" style="endArrow=classic;html=1;rounded=0;exitX=1.2;exitY=0.652;exitDx=0;exitDy=0;exitPerimeter=0;entryX=-0.1;entryY=0.649;entryDx=0;entryDy=0;entryPerimeter=0;" edge="1" parent="1" source="3nuBFxr9cyL0pnOWT2aG-2" target="9GrYp0oR3SbUmOQ9qg4n-11">
          <mxGeometry width="50" height="50" relative="1" as="geometry">
            <mxPoint x="220" y="680" as="sourcePoint" />
            <mxPoint x="560" y="601" as="targetPoint" />
          </mxGeometry>
        </mxCell>
        <mxCell id="9GrYp0oR3SbUmOQ9qg4n-44" value="点击加入星球" style="text;html=1;align=center;verticalAlign=middle;resizable=0;points=[];autosize=1;strokeColor=none;fillColor=none;" vertex="1" parent="1">
          <mxGeometry x="195" y="580" width="90" height="20" as="geometry" />
        </mxCell>
        <mxCell id="9GrYp0oR3SbUmOQ9qg4n-45" value="" style="endArrow=open;html=1;rounded=0;endFill=0;entryX=1.2;entryY=0.119;entryDx=0;entryDy=0;entryPerimeter=0;exitX=0;exitY=0.71;exitDx=0;exitDy=0;exitPerimeter=0;dashed=1;" edge="1" parent="1" source="9GrYp0oR3SbUmOQ9qg4n-11" target="3nuBFxr9cyL0pnOWT2aG-6">
          <mxGeometry width="50" height="50" relative="1" as="geometry">
            <mxPoint x="560" y="639" as="sourcePoint" />
            <mxPoint x="480" y="680" as="targetPoint" />
          </mxGeometry>
        </mxCell>
        <mxCell id="9GrYp0oR3SbUmOQ9qg4n-46" value="创建支付流水" style="text;html=1;align=center;verticalAlign=middle;resizable=0;points=[];autosize=1;strokeColor=none;fillColor=none;" vertex="1" parent="1">
          <mxGeometry x="420" y="620" width="90" height="20" as="geometry" />
        </mxCell>
        <mxCell id="9GrYp0oR3SbUmOQ9qg4n-47" value="" style="endArrow=classic;html=1;rounded=0;dashed=1;" edge="1" parent="1">
          <mxGeometry width="50" height="50" relative="1" as="geometry">
            <mxPoint x="370" y="670" as="sourcePoint" />
            <mxPoint x="180" y="670" as="targetPoint" />
          </mxGeometry>
        </mxCell>
        <mxCell id="9GrYp0oR3SbUmOQ9qg4n-48" value="发起支付" style="text;html=1;align=center;verticalAlign=middle;resizable=0;points=[];autosize=1;strokeColor=none;fillColor=none;" vertex="1" parent="1">
          <mxGeometry x="190" y="650" width="60" height="20" as="geometry" />
        </mxCell>
        <mxCell id="9GrYp0oR3SbUmOQ9qg4n-49" value="" style="endArrow=classic;html=1;rounded=0;exitX=1.5;exitY=0.857;exitDx=0;exitDy=0;exitPerimeter=0;" edge="1" parent="1" source="3nuBFxr9cyL0pnOWT2aG-2" target="3nuBFxr9cyL0pnOWT2aG-5">
          <mxGeometry width="50" height="50" relative="1" as="geometry">
            <mxPoint x="270" y="660" as="sourcePoint" />
            <mxPoint x="320" y="610" as="targetPoint" />
          </mxGeometry>
        </mxCell>
        <mxCell id="9GrYp0oR3SbUmOQ9qg4n-50" value="完成支付" style="text;html=1;align=center;verticalAlign=middle;resizable=0;points=[];autosize=1;strokeColor=none;fillColor=none;" vertex="1" parent="1">
          <mxGeometry x="190" y="710" width="60" height="20" as="geometry" />
        </mxCell>
        <mxCell id="9GrYp0oR3SbUmOQ9qg4n-51" value="" style="endArrow=open;html=1;rounded=0;exitX=1.1;exitY=0.819;exitDx=0;exitDy=0;exitPerimeter=0;dashed=1;endFill=0;" edge="1" parent="1" source="3nuBFxr9cyL0pnOWT2aG-6" target="9GrYp0oR3SbUmOQ9qg4n-10">
          <mxGeometry width="50" height="50" relative="1" as="geometry">
            <mxPoint x="420" y="780" as="sourcePoint" />
            <mxPoint x="470" y="730" as="targetPoint" />
          </mxGeometry>
        </mxCell>
        <mxCell id="9GrYp0oR3SbUmOQ9qg4n-52" value="通知支付结果" style="text;html=1;align=center;verticalAlign=middle;resizable=0;points=[];autosize=1;strokeColor=none;fillColor=none;" vertex="1" parent="1">
          <mxGeometry x="425" y="730" width="90" height="20" as="geometry" />
        </mxCell>
        <mxCell id="9GrYp0oR3SbUmOQ9qg4n-53" value="" style="endArrow=classic;html=1;rounded=0;dashed=1;exitX=-0.3;exitY=0.971;exitDx=0;exitDy=0;exitPerimeter=0;entryX=1;entryY=0.968;entryDx=0;entryDy=0;entryPerimeter=0;" edge="1" parent="1" source="9GrYp0oR3SbUmOQ9qg4n-11" target="3nuBFxr9cyL0pnOWT2aG-2">
          <mxGeometry width="50" height="50" relative="1" as="geometry">
            <mxPoint x="470" y="840" as="sourcePoint" />
            <mxPoint x="200" y="802" as="targetPoint" />
          </mxGeometry>
        </mxCell>
        <mxCell id="9GrYp0oR3SbUmOQ9qg4n-54" value="加入星球成功" style="text;html=1;align=center;verticalAlign=middle;resizable=0;points=[];autosize=1;strokeColor=none;fillColor=none;" vertex="1" parent="1">
          <mxGeometry x="196" y="770" width="90" height="20" as="geometry" />
        </mxCell>
      </root>
    </mxGraphModel>
  </diagram>
</mxfile>
